<svg xmlns="http://www.w3.org/2000/svg" width="24" height="20">
    <path fill="#F3514C" fill-rule="evenodd" d="M9.5 15a.5.5 0 0 1 0-1h1a.5.5 0 0 1 0 1h-1zM24 11.501V17c0 .547-.484 1-1 1h-1a2 2 0 0 1-4 0h-8a2 2 0 0 1-4 0H5c-.594 0-1-.469-1-1v-2c0-1.361 1.521-2.885 2.865-2.982L10.125 9H12.5l.5.5-.5.5h-2l-2.174 1.999H12V11.5a.5.5 0 0 1 1 0v.499h7.5V12a.5.5 0 0 1 0 1h-7.999H7c-.719 0-2 1.265-2 2v2h1.277c.347-.595.985-1 1.723-1 .738 0 1.376.405 1.722 1h8.555c.347-.595.984-1 1.723-1 .738 0 1.376.405 1.723 1H23v-5.5a.5.5 0 0 1 1 0v.001zM8 17a1 1 0 1 0 0 2 1 1 0 0 0 0-2zm12 0a1 1 0 1 0 0 2 1 1 0 0 0 0-2zm3.263-8.75a7.04 7.04 0 0 1-.912 1.205l-.92-.531a3.66 3.66 0 0 1-.619.447v.004c-.014.009-.04.021-.056.031-.017.008-.041.026-.057.034l-.003-.002A3.65 3.65 0 0 1 20 9.75v1.062c-.355.091-1 .188-1.5.188s-1.146-.097-1.5-.188V9.75a3.689 3.689 0 0 1-.697-.312l-.003.002c-.016-.008-.04-.026-.057-.035-.016-.01-.042-.021-.056-.03l.001-.004a3.62 3.62 0 0 1-.619-.447l-.92.531a7.04 7.04 0 0 1-.912-1.205 7.07 7.07 0 0 1-.588-1.393l.92-.532a3.59 3.59 0 0 1-.078-.759l-.003-.001c-.002-.017.002-.047.001-.066.001-.018-.003-.048-.001-.065l.003-.001a3.59 3.59 0 0 1 .078-.759l-.92-.532c.099-.352.338-.959.588-1.392a7.05 7.05 0 0 1 .912-1.206l.92.532c.187-.172.426-.339.619-.448l-.001-.003c.014-.01.04-.021.055-.03.018-.01.042-.028.058-.035l.003.001c.191-.112.455-.235.697-.311V.187C17.354.096 18 0 18.5 0s1.145.096 1.5.187V1.25c.242.076.506.199.697.311l.002-.001c.016.007.04.025.057.034.016.01.043.021.056.031v.003c.193.109.431.276.619.448l.92-.532c.256.262.662.773.912 1.206.25.433.489 1.04.588 1.392l-.921.532c.055.247.08.537.079.759l.003.001c.001.017-.002.047-.002.065 0 .019.003.049.002.066l-.003.001c.001.222-.024.512-.079.759l.921.532a7.07 7.07 0 0 1-.588 1.393zM21.999 5.5a3.584 3.584 0 0 0-.245-1.302l.866-.5s-.087-.213-.223-.448c-.136-.236-.277-.418-.277-.418l-.866.5a3.56 3.56 0 0 0-1.006-.863c-.356-.2-.78-.373-1.248-.438v-1S18.772 1 18.5 1s-.5.031-.5.031v1a3.577 3.577 0 0 0-2.254 1.301l-.866-.5s-.141.182-.277.418c-.136.235-.223.448-.223.448l.866.5a3.563 3.563 0 0 0-.245 1.302c.004.408.067.862.245 1.301l-.866.5s.087.213.223.449c.136.235.277.417.277.417l.866-.5c.29.373.652.654 1.004.862.356.201.781.374 1.25.439v1s.228.032.5.032.5-.032.5-.032v-1a3.57 3.57 0 0 0 2.254-1.301l.866.5s.141-.182.277-.417c.136-.236.223-.449.223-.449l-.866-.5c.178-.439.24-.893.245-1.301zM18.5 8a2.5 2.5 0 1 1 0-5 2.5 2.5 0 0 1 0 5zm0-4a1.5 1.5 0 1 0 0 3 1.5 1.5 0 0 0 0-3zm-14 4a.5.5 0 0 1 .5.5v3a.5.5 0 0 1-.5.499h-2a.5.5 0 1 1 0-.999H4V8.5a.5.5 0 0 1 .5-.5zm7-1h-1l-.002-.001H3.75L1 11v4h2v1H1c-.5 0-1-.375-1-1v-4.25l3-4.5S3.281 6 4 6h7.5a.5.5 0 0 1 0 1z"/>
</svg>
