<svg xmlns="http://www.w3.org/2000/svg" width="24" height="20">
    <path fill="#F65C50" fill-rule="evenodd" d="M22.628 11.5h-.5l-.124-.625-.079-.158a4.454 4.454 0 0 0-.636-1.636l.59.169.624.625.372-.376-.622-.374L21.505 9h-.26a4.5 4.5 0 0 0-.712-.81l.098-.065.624-.126h.499l1.248.376.624.375L24 9v.75l-1.372 1.75zm-3.793-4.279c-.076-.025-.151-.05-.228-.071a5.103 5.103 0 0 0-.356-.076 4.297 4.297 0 0 0-.705-.071c-.012 0-.023-.003-.035-.003v.001L17.5 7c-.171 0-.334.031-.5.05V2c0-.578-.531-1-1-1h-6-6c-.469 0-1 .422-1 1v12h10.76c.063.094.142.173.211.261l.025.031A5.495 5.495 0 0 0 13 15.351V15H7v2c0 .625-.469.999-1 .999H5c-.469 0-1-.499-1-.999v-2H3c-.516 0-1-.422-1-1V7.999H1c-.5 0-1-.484-1-.999V4c0-.516.484-1 1-1h1V2c0-1 1-2 2-2h12c1 0 2 1 2 2v1h1c.516 0 1 .484 1 1v3c0 .226-.107.439-.258.615a4.445 4.445 0 0 0-.907-.394zM5 17h1v-2H5v2zM2 4H1v3h1V4zm17 0h-1v3h1V4zm-5.875 5.25l.591-.169a4.438 4.438 0 0 0-.637 1.636l-.079.158-.125.625h-.5L11 9.75V9l.375-.25.625-.375 1.25-.376h.5l.625.126.098.065a4.468 4.468 0 0 0-.713.81h-.26l-.75.125-.625.374.375.376.625-.625zM5.5 10a1.5 1.5 0 1 1 0 3 1.5 1.5 0 0 1 0-3zm0 2a.5.5 0 1 0 0-1 .5.5 0 0 0 0 1zM4 3c0-.532.469-1 1-1h10c.531 0 1 .468 1 1v4.275c-.105.037-.212.067-.312.111L15 7.136V3H5v4.999h5.375L10 8.375V9H5c-.484 0-1-.469-1-1.001V3zm16.988 8.619A3.494 3.494 0 0 1 14 11.5c0-.084.019-.163.025-.245L14 11.249l.031-.056C14.189 9.406 15.672 8 17.5 8a3.5 3.5 0 0 1 3.5 3.5c0 .033-.009.064-.01.097l.01.028-.012-.006zM15 11.5a2.5 2.5 0 1 0 5 0c0-.136-.019-.266-.04-.395l-.96-.48-.5.25-.75.499-1.375.251h-.75l-.623-.144L15 11.5zm.197-.974l.428.099h.75l1.375-.25.75-.625.491-.246A2.48 2.48 0 0 0 17.5 9a2.5 2.5 0 0 0-2.303 1.526zm-.491 4.476a4.4 4.4 0 0 0 .901.567 3.509 3.509 0 0 0-1.56 2.46l.953.596 1 .25L17 19h1l1-.125 1-.25.952-.596a3.502 3.502 0 0 0-1.556-2.457c.325-.151.622-.345.899-.566a4.492 4.492 0 0 1 1.651 2.958l.054.035v.376l-.011.016c.001.037.011.071.011.109l-.096.019-.154.231-.75.5-1 .499-1.5.251h-2l-1.5-.251-1-.499-.75-.5-.154-.231L13 18.5c0-.038.01-.072.011-.109L13 18.375v-.376l.054-.035a4.499 4.499 0 0 1 1.652-2.962z"/>
</svg>
