<svg xmlns="http://www.w3.org/2000/svg" width="24" height="24">
    <path fill="#FFF" fill-rule="evenodd" d="M23 22h-2.5v1h1a.5.5 0 0 1 0 1h-3a.5.5 0 0 1 0-1h1v-1H17c-.599 0-1-.448-1-1.001V18a1 1 0 0 1 1-1h6a1 1 0 0 1 1 1v2.999A1 1 0 0 1 23 22zm-3.5-6.125a.5.5 0 0 1-.5-.5V13h-3.5a.5.5 0 0 1 0-1h4a.5.5 0 0 1 .5.5v2.875a.5.5 0 0 1-.5.5zM15 5h-2.5v1h1a.5.5 0 0 1 0 1h-3a.5.5 0 0 1 0-1h1V5H9c-.599 0-1-.448-1-1V1a1 1 0 0 1 1-1h6a1 1 0 0 1 1 1v3a1 1 0 0 1-1 1zm-6 7.5a.5.5 0 0 1-.5.5H5v2.5a.5.5 0 0 1-1 0v-3a.5.5 0 0 1 .5-.5h4a.5.5 0 0 1 .5.5zM8 18v2.999A1 1 0 0 1 7 22H4.5v1h1a.5.5 0 0 1 0 1h-3a.5.5 0 0 1 0-1h1v-1H1c-.599 0-1-.448-1-1.001V18a1 1 0 0 1 1-1h6a1 1 0 0 1 1 1zm3.5-8.5v-1a.5.5 0 0 1 1 0v1a.5.5 0 0 1-1 0zM14 14h-4v-3h4v3z"/>
</svg>
