<svg xmlns="http://www.w3.org/2000/svg" width="20" height="24">
    <path fill="#F65C50" fill-rule="#ffffff" d="M19 21c-2.375.678-4 1-7 1a2 2 0 1 1-4 0c-3 0-5-.289-7-1 0 0-1-.441-1-1v-1.001C0 17 3 14.745 3 13v-2-2c0-3.022 2.068-5.804 5.041-6.685C8.023 2.211 8 2.109 8 2a2 2 0 1 1 4 0c0 .109-.023.211-.041.315C14.932 3.198 17 5.984 17 9v4c0 1.703 3 4 3 5.999V20c0 .557-1 1-1 1zm-9 2a1 1 0 0 0 1-1H9a1 1 0 0 0 1 1zm1-21a1 1 0 0 0-2 0c0 .036.015.067.02.102C9.342 2.056 9.662 2 10 2c.338 0 .658.056.98.102.004-.035.02-.066.02-.102zm8 17.25c0-1.814-3-3.92-3-6.25V9c0-3-2.587-6-6-6S4 6 4 9v4c0 2.253-3 4.431-3 6.25V20s3 1 7 1h4c4 0 7-1 7-1v-.75z"/>
</svg>
