<svg xmlns="http://www.w3.org/2000/svg" width="24" height="24">
    <path fill="#F65D50" fill-rule="evenodd" d="M23.009 5.433l.003.001c.001.017-.002.047-.002.066 0 .018.003.048.002.065l-.003.001c.001.222-.024.512-.079.759l.921.532a7.07 7.07 0 0 1-.588 1.393 7.08 7.08 0 0 1-.912 1.205l-.92-.531a3.66 3.66 0 0 1-.619.447v.004c-.014.01-.041.021-.058.031-.016.009-.039.027-.055.034l-.002-.002A3.689 3.689 0 0 1 20 9.75v1.062c-.355.091-1 .188-1.5.188s-1.146-.097-1.5-.188V9.75a3.689 3.689 0 0 1-.697-.312l-.003.002c-.015-.008-.039-.025-.056-.034-.016-.01-.043-.022-.057-.031l.001-.004a3.62 3.62 0 0 1-.619-.447l-.92.531a7.08 7.08 0 0 1-.912-1.205 7.07 7.07 0 0 1-.588-1.393l.92-.532a3.59 3.59 0 0 1-.078-.759l-.003-.001c-.002-.017.002-.047.001-.065.001-.019-.003-.049-.001-.066l.003-.001a3.604 3.604 0 0 1 .078-.759l-.92-.532c.099-.352.338-.959.588-1.392a7.05 7.05 0 0 1 .912-1.206l.92.532c.187-.172.426-.339.619-.448l-.001-.004c.016-.01.044-.022.062-.033.015-.008.037-.025.051-.031l.003.001A3.66 3.66 0 0 1 17 1.25V.187c.354-.091 1-.188 1.5-.188s1.145.097 1.5.188V1.25c.242.076.506.199.697.311l.002-.001c.015.006.036.022.051.03.018.011.047.024.062.034v.004c.193.109.431.276.619.448l.92-.532c.256.262.662.773.912 1.206.25.433.489 1.04.588 1.392l-.921.532c.055.248.08.538.079.759zm-1.01.067a3.584 3.584 0 0 0-.245-1.302l.866-.5s-.087-.213-.223-.449c-.136-.235-.277-.417-.277-.417l-.866.5A3.59 3.59 0 0 0 19 2.031v-1S18.772 1 18.5 1s-.5.031-.5.031v1a3.557 3.557 0 0 0-1.25.439 3.552 3.552 0 0 0-1.004.862l-.866-.5s-.141.182-.277.417c-.136.236-.223.449-.223.449l.866.5a3.563 3.563 0 0 0-.245 1.302c.004.408.067.862.245 1.301l-.866.5s.087.213.223.449c.136.235.277.417.277.417l.866-.5c.29.373.653.654 1.004.862.356.201.781.374 1.25.439v1s.228.032.5.032.5-.032.5-.032v-1a3.57 3.57 0 0 0 2.254-1.301l.866.5s.141-.182.277-.417c.136-.236.223-.449.223-.449l-.866-.5c.178-.439.24-.893.245-1.301zM18.5 8a2.5 2.5 0 1 1 0-5 2.5 2.5 0 0 1 0 5zm0-4a1.5 1.5 0 1 0 0 3 1.5 1.5 0 0 0 0-3zM10 19h1v4.999h-1V19zm0-6.5h1V17h-1v-4.5zM10 7h1v4h-1V7zm0-5.001h1V5.5h-1V1.999zM1.125 23.5c-.072.268-.148.503-.625.499-.271 0-.5-.375-.5-.375S4.87 2.902 5 2.375c.157-.638 1.128-.385 1 .25-.118.582-4.231 18.042-4.875 20.875zM17.75 11.999c.356-.099.547.137.623.401l2.55 10.993a.5.5 0 1 1-.975.226l-2.551-11.003c-.053-.262-.017-.511.353-.617z"/>
</svg>
