<svg xmlns="http://www.w3.org/2000/svg" width="22" height="24">
    <path fill="#FFF" fill-rule="evenodd" d="M21.64 7.971l-.625.816-3.193-2.417.632-.827c.608-.794 2.013-.983 2.809-.376.797.607.985 2.009.377 2.804zM18.414 4.25l-.376.25V2H3.006V1c0-.469.533-1 1.002-1H19.04a.989.989 0 0 1 1.003 1v2.75l-1.003.124-.626.376zm-1.378-.251v1.876l-7.641 9.874-.376.501-.125.375L8.769 20l.125.75.125.249.376.125h.501l.626-.125 2.631-.874.501-.25.376-.376 3.006-3.874v7.374c0 .485-.438 1.001-1.002 1.001H1.002A.998.998 0 0 1 0 22.999v-19C0 3.5.564 3 1.002 3h15.032c.517 0 1.002.437 1.002.999zM3.006 18.25l.126.25 1.378 1.375.375.125h.251l.376-.125 2.38-2.501.125-.249V17l-.125-.25-.125-.125-.251-.125h-.125l-.251.125-2.129 2.25-1.128-1.125-.25-.125h-.251l-.25.125-.126.249v.251zM3.5 14h5.531a.5.5 0 0 0 0-1H3.5a.5.5 0 0 0 0 1zm0-3h8.031a.5.5 0 0 0 0-1H3.5a.5.5 0 0 0 0 1zm9.031-4H3.5a.5.5 0 0 0 0 1h9.031a.5.5 0 0 0 0-1zm7.512 13.999c0 .501-.533 1.001-1.003 1.001h-1.002v-7.625l2.005-2.625v9.249zm-10.334-.73l.045-.692.183-2.854 3.131 2.395-2.702.926-.657.225zM20.425 9.558l-6.766 8.844-3.109-2.528 6.723-8.787 3.152 2.471z"/>
</svg>
