<svg xmlns="http://www.w3.org/2000/svg" width="24" height="18">
    <path fill="#FFF" fill-rule="evenodd" d="M23 18H1a1 1 0 0 1-1-1V1a1 1 0 0 1 1-1h22a1 1 0 0 1 1 1v16a1 1 0 0 1-1 1zm-8-3h3v-4h-3v4zm-4 0h3V6.999h-3V15zm-8.5 0l2.25-1.625 1 .624L10 10.75l-.75-1-3.5 2.875L4.625 12 2 13.999 2.5 15zm.125-3L4.75 8.5l2 1.375 3.25-1.5-.625-1L6.75 8.624l-2-1.625H4.5l-2.625 4.376.75.625zM2.5 2a.5.5 0 1 0 0 1 .5.5 0 0 0 0-1zm2 0a.5.5 0 1 0 0 1 .5.5 0 0 0 0-1zm2 0a.5.5 0 1 0 0 1 .5.5 0 0 0 0-1zm15 1.999h-19A.5.5 0 0 0 2.5 5h19a.5.5 0 0 0 0-1.001zM22 9h-3v6h3V9z"/>
</svg>
