<svg xmlns="http://www.w3.org/2000/svg" width="22" height="24">
    <path fill="#F65D50" fill-rule="evenodd" d="M21.64 7.971l-8.514 11.127-2.76.946-.657.225.044-.691.187-2.907 8.514-11.128c.608-.794 2.012-.982 2.809-.376.797.607.985 2.009.377 2.804zM10.735 18.928l1.495-.512-.697-.531-.697-.531-.101 1.574zM18.034 7.74l-6.689 8.743.796.607.797.607 6.689-8.743-.796-.607-.797-.607zm2.621-1.778c-.398-.303-1.082-.234-1.405.188l-.608.795.797.607.796.607.608-.795c.323-.422.21-1.098-.188-1.402zM20.031 2.5a.5.5 0 0 1-1 0c0-.016.008-.03.01-.046V1h-.509H3.5a.5.5 0 0 1 0-1h15.541c.547 0 1.002.546 1.002 1v1.5h-.012zM3.862 17.771a238.09 238.09 0 0 0 1.149 1.104s2.027-2.107 2.153-2.232a.502.502 0 0 1 .71.708c-.155.154-2.362 2.524-2.362 2.524L5.011 20l-.501-.125s-1.202-1.243-1.357-1.397a.499.499 0 0 1 0-.707.503.503 0 0 1 .709 0zM9.019 14H3.507a.501.501 0 0 1 0-1h5.512a.5.5 0 1 1 0 1zM3 7.5a.5.5 0 0 1 .5-.5h9.031a.5.5 0 0 1 0 1H3.5a.5.5 0 0 1-.5-.5zm8.531 3.5H3.5a.5.5 0 0 1 0-1h8.031a.5.5 0 0 1 0 1zm5.004-7.999a.5.5 0 0 1 0 .998V4h-.004H1.002v19h15.032v-3.486c0-.005-.003-.009-.003-.014a.5.5 0 0 1 1 0h.005V23c0 .562-.485 1-1.002 1H1.002C.485 24 0 23.562 0 23V4c0-.485.485-1 1.002-1h15.533v.001zM19.531 14a.5.5 0 0 1 .5.5v7a.5.5 0 0 1-1 0v-7a.5.5 0 0 1 .5-.5z"/>
</svg>
