<svg xmlns="http://www.w3.org/2000/svg" width="24" height="24">
    <path fill="#FFF" fill-rule="evenodd" d="M23.009 5.433l.003.001c.001.017-.002.047-.002.066 0 .018.003.048.002.065l-.003.001c.001.221-.023.512-.079.76l.921.531a7.096 7.096 0 0 1-.588 1.393 7.04 7.04 0 0 1-.912 1.205l-.92-.531a3.66 3.66 0 0 1-.619.447v.004c-.014.009-.041.021-.057.031-.017.009-.04.026-.056.034l-.002-.002A3.689 3.689 0 0 1 20 9.75v1.062c-.355.091-1 .188-1.5.188s-1.146-.097-1.5-.188V9.75a3.689 3.689 0 0 1-.697-.312l-.003.002c-.016-.008-.04-.026-.057-.035-.015-.01-.042-.021-.056-.03l.001-.004a3.62 3.62 0 0 1-.619-.447l-.92.531a7.04 7.04 0 0 1-.912-1.205 7.096 7.096 0 0 1-.588-1.393l.92-.531a3.613 3.613 0 0 1-.078-.76l-.003-.001c-.002-.017.002-.047.001-.065.001-.019-.003-.049-.001-.066l.003-.001a3.604 3.604 0 0 1 .078-.759l-.92-.532c.099-.352.338-.959.588-1.393a7.04 7.04 0 0 1 .912-1.205l.92.531a3.62 3.62 0 0 1 .619-.447l-.001-.003c.014-.01.041-.021.056-.031.017-.009.041-.027.057-.035l.003.002c.191-.112.455-.235.697-.311V.187C17.354.096 18 0 18.5 0s1.145.096 1.5.187V1.25c.242.076.506.199.696.311l.003-.002c.016.008.04.026.057.035.015.01.042.021.056.031v.003c.193.11.431.276.619.447l.92-.531c.256.262.662.772.912 1.205.25.434.489 1.041.588 1.393l-.921.532c.056.248.08.538.079.759zM18.5 3a2.5 2.5 0 1 0 0 5 2.5 2.5 0 0 0 0-5zM13 5.25v.499s-.722.373-.957.505a6.493 6.493 0 0 0 2.658 4.52c.339-.221.799-.524.799-.524l.375.25s.002.632.021.957c.702.307 1.476.469 2.28.509l.026.139a.68.68 0 0 1 .171.295l2.55 10.993a.5.5 0 0 1-.374.6.487.487 0 0 1-.174.005V24H11v-5h-1v5H.625l.003-.018C.585 23.988.553 24 .5 24c-.271 0-.5-.375-.5-.375S4.87 2.902 5 2.374c.067-.272.282-.374.497-.361L5.5 2h7.539a6.423 6.423 0 0 0-.998 2.768c.335.19.959.482.959.482zM11 2h-1v3.5h1V2zm0 5h-1v4h1V7zm0 5.5h-1V17h1v-4.5z"/>
</svg>
