<svg xmlns="http://www.w3.org/2000/svg" width="24" height="14">
    <path fill="#F65D50" fill-rule="evenodd" d="M23 12h-.499-.001a.5.5 0 0 1 0-1v-.001h.5V10h-.5a.5.5 0 0 1 0-1h.5V7.375L18.625 3H16v5.5a.5.5 0 0 1-1 0v-4V3c0-.563.484-1 1-1h3l5 5v3.999c0 .548-.484 1.001-1 1.001zm-9.5 0H8.95a2.502 2.502 0 0 1-4.9 0H2.5a.5.5 0 0 1 0-1h1.55a2.502 2.502 0 0 1 4.9 0h4.55a.5.5 0 0 1 0 1zm-7-2a1.5 1.5 0 1 0 0 3 1.5 1.5 0 0 0 0-3zm0 2a.5.5 0 1 1 0-1 .5.5 0 0 1 0 1zM3.934 7.046l3.8-3.8a.499.499 0 0 1 .707 0 .499.499 0 0 1 0 .707l-3.8 3.8a.499.499 0 0 1-.707 0 .499.499 0 0 1 0-.707zM13 10H9.5a.5.5 0 0 1 0-1H13V2h-3L9 1H7.375L1 7.375V9h2.5a.5.5 0 0 1 0 1H1c-.5 0-1-.485-1-1V7l7-7h2c.5 0 1 .484 1 1h3c.5 0 1 .453 1 1v7c0 .515-.469 1-1 1zm5.5-1a2.5 2.5 0 1 1 0 5 2.5 2.5 0 0 1 0-5zm0 4a1.5 1.5 0 1 0-.001-3.001A1.5 1.5 0 0 0 18.5 13zm0-2a.5.5 0 1 1 0 1 .5.5 0 0 1 0-1zM17 7V5c0-.516.516-1 1-1h.5a.5.5 0 0 1 0 1H18v2h3.5a.5.5 0 0 1 0 1l-.002-.001H18c-.5 0-1-.421-1-.999z"/>
</svg>
