<svg xmlns="http://www.w3.org/2000/svg" width="24" height="18">
    <path fill="#F65C50" fill-rule="evenodd" d="M23 18H1a1 1 0 0 1-1-1.001V1A1 1 0 0 1 1-.001h22A1 1 0 0 1 24 1v15.999A1 1 0 0 1 23 18zm0-17H1v16h22V1zM4.75 6.999l2 1.626 2.75-1.25.5 1L6.75 10l-2-1.501-2.125 3.625-.75-.749L4.5 6.999h.25zm1 5.626L9.375 9.75l.625 1-4.25 3.249-1-.624L2.5 15 2 13.999 4.75 12l1 .625zM14 15h-3V7h3v8zm-1-7h-1v6h1V8zm5 7h-3v-4h3v4zm-1-3h-1v2h1v-2zm5 3h-3V9h3v6zm-1-5h-1v4h1v-4zm.5-5h-19a.5.5 0 0 1 0-1h19a.5.5 0 0 1 0 1zm-15-2a.5.5 0 1 1 0-1 .5.5 0 0 1 0 1zm-2 0a.5.5 0 1 1 0-1 .5.5 0 0 1 0 1zm-2 0a.5.5 0 1 1 0-1 .5.5 0 0 1 0 1z"/>
</svg>
