<svg xmlns="http://www.w3.org/2000/svg" width="24" height="14">
    <path fill="#FFF" fill-rule="evenodd" d="M22 12h-1.05a2.502 2.502 0 0 1-4.9 0H7.949a2.5 2.5 0 0 1-4.899 0H2c-1 0-2-.721-2-2V2C0 .743 1 0 2 0h17s.84-.019 1.111.275c.271.295 3.396 3.855 3.643 4.147.246.291.246.953.246.953V10c0 .999-.75 2-2 2zM9 10h6a.5.5 0 0 0 0-1H9a.5.5 0 0 0 0 1zM1 9v1h1a.5.5 0 0 0 0-1H1zm5-6.5a.5.5 0 0 0-.5-.5h-3a.5.5 0 0 0-.5.5v3a.5.5 0 0 0 .5.5h3a.5.5 0 0 0 .5-.5v-3zM5.5 10a1.5 1.5 0 1 0-.001 2.999A1.5 1.5 0 0 0 5.5 10zM11 2.5a.5.5 0 0 0-.5-.5h-3a.5.5 0 0 0-.5.5v3a.5.5 0 0 0 .5.5h3a.5.5 0 0 0 .5-.5v-3zm5 0a.5.5 0 0 0-.5-.5h-3a.5.5 0 0 0-.5.5v3a.5.5 0 0 0 .5.5h3a.5.5 0 0 0 .5-.5v-3zm1 9a1.5 1.5 0 1 0 3.001-.001A1.5 1.5 0 0 0 17 11.5zm3-4a.5.5 0 0 0-.5-.5h-1a.5.5 0 0 0 0 1h1a.5.5 0 0 0 .5-.5zM21.375 5L19 2.25s-.197-.251-.5-.25c-.303 0-.5 0-.5.499V5.5c0 .224.264.5.5.5h2.625c.256 0 .493-.251.5-.5-.006-.23-.25-.5-.25-.5zM23 9h-1a.5.5 0 1 0 0 1h1V9zm-4 2.5a.5.5 0 1 1-1 0 .5.5 0 0 1 1 0zM5.5 12a.5.5 0 1 1 0-1 .5.5 0 0 1 0 1z"/>
</svg>
