<?xml version="1.0" encoding="utf-8"?>
<!-- Generator: Adobe Illustrator 21.1.0, SVG Export Plug-In . SVG Version: 6.00 Build 0)  -->
<svg version="1.1" id="icon" xmlns="http://www.w3.org/2000/svg" xmlns:xlink="http://www.w3.org/1999/xlink" x="0px" y="0px"
	 viewBox="0 0 352 384" style="enable-background:new 0 0 352 384;" xml:space="preserve" fill="#F65D50">
<g id="lines">
</g>
<g id="icon_x5F_09_x5F_level1_x5F_inact">
	<path d="M304,0C294,0,56,0,56,0c-4.4,0-8,3.6-8,8s3.6,8,8,8h248v24c0,4.4,3.6,8,8,8s8-3.6,8-8c0,0,0-22,0-24C320,7,314,0,304,0z"/>
	<path d="M264,304c-4.4,0-8,3.6-8,8v56H16V64h248c4.4,0,8-3.6,8-8s-3.6-8-8-8c0,0-246,0-248,0C7,48,0,55,0,64c0,1,0,301,0,304
		c0,10,7,16,16,16c3,0,237,0,240,0c9,0,16-6,16-16s0-56,0-56C272,307.6,268.4,304,264,304z"/>
	<path d="M200,112H56c-4.4,0-8,3.6-8,8s3.6,8,8,8h144c4.4,0,8-3.6,8-8S204.4,112,200,112z"/>
	<path d="M184,160H56c-4.4,0-8,3.6-8,8s3.6,8,8,8h128c4.4,0,8-3.6,8-8S188.4,160,184,160z"/>
	<path d="M144,208H56c-4.4,0-8,3.6-8,8s3.6,8,8,8h88c4.4,0,8-3.6,8-8S148.4,208,144,208z"/>
	<path d="M312,352L312,352c-4.4,0-8-3.6-8-8V232c0-4.4,3.6-8,8-8l0,0c4.4,0,8,3.6,8,8v112C320,348.4,316.4,352,312,352z"/>
	<path d="M125.7,274.6c1.4-1.4,2.3-3.4,2.3-5.6c0-4.4-3.6-8-8-8c-2,0-3.8,0.7-5.2,2l0,0l0,0c-0.3,0.3-0.6,0.6-0.9,0.9L80,298
		l-17.8-18c-0.4-0.4-0.7-0.8-1.2-1.2l0,0l0,0c-1.4-1.1-3.1-1.8-5.1-1.8c-4.4,0-8,3.6-8,8c0,2.5,1.1,4.7,2.9,6.1L80,320L125.7,274.6
		C125.7,274.7,125.7,274.7,125.7,274.6L125.7,274.6L125.7,274.6z"/>
	<path d="M346,130.7c10.1-13.2,7.8-33.3-6.5-44.2s-34.3-7.8-44.4,5.3c-2.4,3.1-132.7,173.5-132.7,173.5l-5.5,44.6
		c-0.5,2.8-0.4,6.5,2.1,8.4c2.5,1.9,5.6,2.1,8.2,0.9l46-14.9C213.1,304.4,343.6,133.8,346,130.7z M210.1,282l-25.4-19.4
		c13.7-17.8,73.4-95.9,104.3-136.2l25.4,19.4C283.5,186.1,223.7,264.2,210.1,282z M330.1,98.9c7.1,5.5,8.6,15.1,3.2,22.1
		c-0.8,1-4.2,5.5-9.5,12.4L298.4,114c5.3-6.9,8.7-11.4,9.5-12.4C313.2,94.6,322.9,93.4,330.1,98.9z M172.6,302.1l3.4-25.4l22,16.8
		L172.6,302.1z"/>
</g>
</svg>
