<svg xmlns="http://www.w3.org/2000/svg" width="24" height="14">
    <path fill="#FF5D4E" fill-rule="evenodd" d="M22 12h-1.05a2.502 2.502 0 0 1-4.9 0H7.949a2.5 2.5 0 0 1-4.899 0H2c-1 0-2-.721-2-2V2C0 .743 1 0 2 0h17s.84-.019 1.111.275c.271.295 3.396 3.855 3.643 4.147.246.291.246.953.246.953V10c0 .999-.75 2-2 2zm-3.5 1a1.5 1.5 0 1 0-.001-3.001A1.5 1.5 0 0 0 18.5 13zm-13 0a1.5 1.5 0 1 0-.001-3.001A1.5 1.5 0 0 0 5.5 13zM23 5.375l-.003-.299-3.547-4.038L19 .999H2c-.531 0-1 .48-1 1.001v7h1a.5.5 0 0 1 0 1H1c0 .51.457.999 1 .999h1.05A2.5 2.5 0 1 1 7.949 11h8.101a2.5 2.5 0 0 1 4.899-.001H22c.499 0 1-.503 1-.999h-1a.5.5 0 0 1 0-1h1V5.375zM21.125 6H18.5a.5.5 0 0 1-.5-.5v-3a.5.5 0 0 1 1 0V5h2.125a.5.5 0 0 1 0 1zM18.5 7h1a.5.5 0 0 1 0 1h-1a.5.5 0 0 1 0-1zm-2-1H2.5a.499.499 0 0 1-.5-.5v-3a.5.5 0 0 1 1 0V5h3V2.5a.5.5 0 0 1 1 0V5h4V2.5a.5.5 0 0 1 1 0V5h4V2.5a.5.5 0 0 1 1 0v3a.5.5 0 0 1-.5.5zM9 9h6a.5.5 0 0 1 0 1H9a.5.5 0 0 1 0-1zm-3.5 2a.5.5 0 1 1 0 1 .5.5 0 0 1 0-1zm13 0a.5.5 0 1 1 0 1 .5.5 0 0 1 0-1z"/>
</svg>
