<svg xmlns="http://www.w3.org/2000/svg" width="24" height="14">
    <path fill="#FFF" fill-rule="evenodd" d="M23 12h-2.05a2.5 2.5 0 0 1-4.9 0H16c-.531 0-1-.422-1-1V3c0-.532.516-1.001 1-1.001h3l5 5V11c0 .5-.453 1-1 1zm-4.5 1a1.5 1.5 0 1 0-.001-3.001A1.5 1.5 0 0 0 18.5 13zM22 7.375L18.625 4H18c-.469 0-1 .484-1 1v1.999C17 7.515 17.453 8 18 8h3.5c.234 0 .5-.297.5-.5v-.125zM22.5 9h-1a.5.5 0 0 0 0 1h1a.5.5 0 0 0 0-1zm-4 2a.5.5 0 1 1 0 1 .5.5 0 0 1 0-1zM13 12H8.95a2.5 2.5 0 0 1-4.9 0H3c-.531 0-1-.5-1-1v-1H1c-.547 0-1-.407-1-1V6.999L7 0h2c.516 0 1 .422 1 1h3c.531 0 1 .484 1 .999V11c0 .531-.453 1-1 1zm-6.5 1a1.5 1.5 0 1 0-.001-3.001A1.5 1.5 0 0 0 6.5 13zm-3-3a.5.5 0 1 0 0 1 .5.5 0 0 0 0-1zm5.125-6.501L8.5 3.25l-.125-.125L8.125 3H8l-.25.125-3.875 3.874-.125.251v.125l.125.25L4 7.75l.25.125h.125l.25-.125L8.5 3.875l.125-.251v-.125zM12.5 10H10a.5.5 0 0 0 0 1h2.5a.5.5 0 0 0 0-1zm-6 1a.5.5 0 1 1 0 1 .5.5 0 0 1 0-1z"/>
</svg>
