<svg xmlns="http://www.w3.org/2000/svg" width="24" height="20">
    <path fill="#FFF" fill-rule="evenodd" d="M23 18h-1a2 2 0 0 1-4 0h-8a2 2 0 0 1-4 0H5c-.5 0-1-.5-1-1.001V15c0-1.376 1.609-3.001 3-3.001 1-.999 3.25-3 3.25-3h2.787c.299.466.657.883 1.06 1.257a.44.44 0 0 0-.097.243V12.5c0 .234.281.5.5.5h2c.25 0 .5-.266.5-.5v-.692a6.44 6.44 0 0 0 1 .141v.551c0 .234.266.5.5.5h2c.234 0 .5-.266.5-.5v-1.003c.331-.138.643-.309.943-.497H23.5c.234 0 .5.281.5.5v5.499c0 .563-.5 1.001-1 1.001zM9.5 15h1a.5.5 0 0 0 0-1h-1a.5.5 0 0 0 0 1zM7 18a1 1 0 1 0 2 0 1 1 0 0 0-2 0zm6-7.501c0-.5-.281-.5-.5-.5h-2L8 12.374v.126c0 .234.297.5.5.5H12c.578 0 1-.485 1-1.001v-1.5zM20 17a1 1 0 1 0 0 2 1 1 0 0 0 0-2zm3.263-8.75a7.08 7.08 0 0 1-.912 1.205l-.92-.531a3.66 3.66 0 0 1-.619.447v.004c-.013.009-.039.02-.055.03-.017.009-.042.027-.058.035l-.003-.002A3.65 3.65 0 0 1 20 9.75v1.062c-.355.091-1 .188-1.5.188s-1.146-.097-1.5-.188V9.75a3.689 3.689 0 0 1-.697-.312l-.003.002c-.016-.008-.041-.026-.058-.036-.016-.009-.041-.02-.055-.029l.001-.004a3.62 3.62 0 0 1-.619-.447l-.92.531a7.08 7.08 0 0 1-.912-1.205 7.07 7.07 0 0 1-.588-1.393l.92-.532a3.59 3.59 0 0 1-.078-.759l-.003-.001c-.002-.017.002-.047.001-.066.001-.018-.003-.048-.001-.065l.003-.001a3.604 3.604 0 0 1 .078-.759l-.92-.532c.099-.352.338-.959.588-1.392a7.05 7.05 0 0 1 .912-1.206l.92.532c.187-.172.426-.339.619-.448l-.001-.004.059-.031c.016-.009.039-.026.054-.034l.003.002c.191-.112.455-.235.697-.311V.187C17.354.096 18 0 18.5 0s1.145.096 1.5.187V1.25c.242.076.506.199.697.311l.002-.002c.015.008.038.025.054.033.017.011.045.022.059.032v.004c.193.109.431.276.619.448l.92-.532c.256.262.662.773.912 1.206.25.433.489 1.04.588 1.392l-.921.532c.056.248.08.538.079.759l.003.001c.001.017-.002.047-.002.065 0 .019.003.049.002.066l-.003.001c.001.221-.023.512-.079.759l.921.532a7.07 7.07 0 0 1-.588 1.393zM18.5 3a2.5 2.5 0 1 0 0 5 2.5 2.5 0 0 0 0-5zM6.531 11.031A3.987 3.987 0 0 0 5 11.596V7.5c0-.501-.5-.501-.5-.501h-.75L1 11v.5c0 .25.297.499.5.499h2.942C3.591 12.726 3 13.785 3 15v1H1c-.531 0-1-.407-1-1v-4.251L3 6.25S3.406 6 4 6h7.5c.5 0 .5.5.5.5s0 .843.5 1.5H9.75s-3.188 3-3.219 3.031z"/>
</svg>
