<svg xmlns="http://www.w3.org/2000/svg" width="24" height="20">
    <path fill="#FFF" fill-rule="evenodd" d="M22.625 11.5h-.5L22 11l-.061-.101a4.464 4.464 0 0 0-1.407-2.705l.093-.069L21.25 8h.5l1.25.375 1 .624v.876L22.625 11.5zM19 7.275V3c.578 0 1 .484 1 1v3c0 .216-.112.433-.27.613a4.485 4.485 0 0 0-.73-.338zM17.5 7c-.01 0-.019.003-.029.003A4.466 4.466 0 0 0 16 7.275V3c0-.516-.469-1-1-1h-5-5c-.531 0-1 .484-1 1v5c0 .515.453.999 1 .999h5v1.251l1.625 1.999.375.251 1 .125.129-.097c.153.653.454 1.242.857 1.751l.009.015a5.468 5.468 0 0 0-.705.706H10 3c-.516 0-1-.407-1-1.001V8.625 3v-.625V2c0-1 1-2 2-2h12c1 0 2 1 2 2v5.035A4.273 4.273 0 0 0 17.504 7H17.5zm-12 6a1.5 1.5 0 1 0-.001-3.001A1.5 1.5 0 0 0 5.5 13zm12-6zM0 7V4c0-.516.422-1 1-1v5c-.484 0-1-.516-1-1zm7 10a1 1 0 0 1-1 1H5a1 1 0 0 1-1-1v-1h3v1zm6-6l-.125.5h-.5L11 9.875v-.876l1-.624L13.25 8h.5l.625.125.093.069a4.466 4.466 0 0 0-1.408 2.705L13 11zm4.5-3a3.487 3.487 0 0 1 3.307 2.404L19 9.5l-.5.25-.75.625-1.375.249H15.5l-1.277-.319A3.49 3.49 0 0 1 17.5 8zm-2.794 7.002A4.455 4.455 0 0 0 17.5 16a4.455 4.455 0 0 0 2.794-.998 4.496 4.496 0 0 1 1.652 2.962L22 18v.375l-.011.016c.001.037.011.071.011.109-.032.008-.065.013-.097.021l-.153.229-.75.499-1 .501-1.5.25h-2l-1.5-.25-1-.501-.75-.499-.153-.229c-.032-.008-.065-.013-.097-.021 0-.038.01-.072.011-.109L13 18.375V18l.054-.036a4.496 4.496 0 0 1 1.652-2.962zM14 11.5c0-.084.019-.162.025-.244l1.475.369h.875l1.375-.25.75-.501.5-.25 1.988.995a3.493 3.493 0 0 1-3.478 3.38c-.002.37-.006.712-.01 1.001-.004-.289-.008-.631-.01-1.001A3.5 3.5 0 0 1 14 11.5z"/>
</svg>
