<svg xmlns="http://www.w3.org/2000/svg" width="24" height="22">
    <path fill="#F65D50" fill-rule="evenodd" d="M22 5a2 2 0 1 1 0-4 2 2 0 0 1 0 4zm0-3a1 1 0 1 0 0 2 1 1 0 0 0 0-2zm-8.701 10.693c.294-.142.564-.324.795-.549 1.633 1.927 4.568.61 5.212 3.945-.356.084-.69.225-.984.424-.458-2.909-3.219-1.228-5.023-3.82zm1.397-4.124c-.026.009-.048.003-.072.004a3.005 3.005 0 0 0-.514-.703c-.011-.053-.015-.089-.005-.074 2.55-1.102 1.612-4.42 4.915-4.593.026.368.109.718.255 1.037-2.735.072-1.6 3.081-4.579 4.329zM12 12a2 2 0 1 1 0-4 2 2 0 0 1 0 4zm0-3a1 1 0 1 0 0 2 1 1 0 0 0 0-2zM5.742 4.435c.279-.201.525-.445.721-.728 1.681 1.819.487 4.111 3.039 4.634a2.98 2.98 0 0 0-.419.983c-2.988-.691-2.084-3.176-3.341-4.889zM4 4a2 2 0 1 1 0-4 2 2 0 0 1 0 4zm0-3a1 1 0 1 0 0 2 1 1 0 0 0 0-2zm2.066 14.878c.265.265.177.707.177.707l-1.326 4.331s-.133.486-.442.796a.723.723 0 0 1-1.061 0c-.176-.177-.883-2.298-.883-2.298S.409 18.707.232 18.53a.723.723 0 0 1 0-1.061c.31-.309.796-.442.796-.442l4.331-1.325s.442-.089.707.176zm-4.419 2.121l1.414.531.177.177.176.176.531 1.415 1.06-3.359-3.358 1.06zm8.38-5.755a3 3 0 0 0 .875.542c-.829 1.693-2.326 1.721-3.645 2.631a1.501 1.501 0 0 0-.73-.754c1.416-1.188 2.817-.978 3.5-2.419zM20 17a2 2 0 1 1 0 4 2 2 0 0 1 0-4zm0 3a1 1 0 1 0 0-2 1 1 0 0 0 0 2z"/>
</svg>
