<svg
        xmlns="http://www.w3.org/2000/svg"
        xmlns:xlink="http://www.w3.org/1999/xlink"
        width="20px" height="14px">
    <path fill-rule="evenodd"  fill="rgb(195, 194, 190)"
          d="M19.000,9.000 L19.000,7.480 C18.686,7.880 18.354,8.260 18.000,8.609 L18.000,11.000 L17.000,11.000 L17.000,9.482 C16.369,9.979 15.696,10.391 15.000,10.744 L15.000,13.000 L14.000,13.000 L14.000,11.205 C13.343,11.464 12.674,11.649 12.000,11.780 L12.000,14.000 L11.000,14.000 L11.000,11.930 C10.666,11.963 10.331,12.000 10.000,12.000 C9.669,12.000 9.334,11.963 9.000,11.930 L9.000,14.000 L8.000,14.000 L8.000,11.780 C7.326,11.649 6.657,11.464 6.000,11.205 L6.000,13.000 L5.000,13.000 L5.000,10.744 C4.304,10.391 3.630,9.979 3.000,9.482 L3.000,11.000 L2.000,11.000 L2.000,8.609 C1.646,8.259 1.314,7.880 1.000,7.480 L1.000,9.000 L-0.000,9.000 L-0.000,6.000 C2.188,2.125 6.250,-0.000 10.000,-0.000 C13.750,-0.000 17.812,2.125 20.000,6.000 L20.000,9.000 L19.000,9.000 ZM10.000,1.000 C5.687,1.000 3.375,3.312 1.000,6.000 C1.623,6.706 2.245,7.381 2.897,8.000 L3.000,8.000 L3.000,8.091 C3.808,8.846 4.673,9.501 5.656,10.000 L6.000,10.000 L6.000,10.171 C7.137,10.688 8.434,11.000 10.000,11.000 C11.566,11.000 12.863,10.688 14.000,10.171 L14.000,10.000 L14.344,10.000 C15.327,9.501 16.192,8.846 17.000,8.091 L17.000,8.000 L17.103,8.000 C17.755,7.381 18.376,6.706 19.000,6.000 C16.625,3.312 14.312,1.000 10.000,1.000 Z"/>
</svg>