<svg
        xmlns="http://www.w3.org/2000/svg"
        xmlns:xlink="http://www.w3.org/1999/xlink"
        width="20px" height="12px">
    <path fill-rule="evenodd"  fill="rgb(246, 92, 80)"
          d="M10.000,12.000 C6.250,12.000 2.188,9.875 -0.000,6.000 C2.188,2.125 6.250,-0.000 10.000,-0.000 C13.750,-0.000 17.812,2.125 20.000,6.000 C17.812,9.875 13.750,12.000 10.000,12.000 ZM10.000,1.000 C5.687,1.000 3.375,3.312 1.000,6.000 C3.375,8.687 5.687,11.000 10.000,11.000 C14.312,11.000 16.625,8.687 19.000,6.000 C16.625,3.312 14.312,1.000 10.000,1.000 ZM10.000,9.000 C8.343,9.000 7.000,7.657 7.000,6.000 C7.000,4.343 8.343,3.000 10.000,3.000 C11.657,3.000 13.000,4.343 13.000,6.000 C13.000,7.657 11.657,9.000 10.000,9.000 ZM10.000,4.000 C8.895,4.000 8.000,4.895 8.000,6.000 C8.000,7.105 8.895,8.000 10.000,8.000 C11.105,8.000 12.000,7.105 12.000,6.000 C12.000,4.895 11.105,4.000 10.000,4.000 Z"/>
</svg>