<?xml version="1.0" encoding="utf-8"?>
<!-- Generator: Adobe Illustrator 21.1.0, SVG Export Plug-In . SVG Version: 6.00 Build 0)  -->
<svg version="1.1" id="icon" xmlns="http://www.w3.org/2000/svg" xmlns:xlink="http://www.w3.org/1999/xlink" x="0px" y="0px"
	 viewBox="0 0 352 384" style="enable-background:new 0 0 352 384;" xml:space="preserve">
<g id="lines">
</g>
<g id="icon_x5F_09_x5F_level1_x5F_act">
	<path d="M287.9,233.1l32.3-42.4V304c0,0-0.1,35.5-0.1,40s-3.8,8-8,8c-4.2,0-24,0-24,0L287.9,233.1z"/>
	<path d="M320,64.1c0,0,0-39.8,0-48.1s-7-16-16-16S59.4,0,56,0c-3.9,0-8,3.4-8,8s0,23.8,0,23.8L287.9,32c0,0,0.1,37.9,0.1,44.1
		C295.1,67.6,307.9,64.3,320,64.1z"/>
	<path d="M146.9,259L272,96c0,0,0-35.9,0-40c0-4.1-3.4-8-8-8S32,48,16,48C7.4,48,0,54,0,64s0,295.4,0,304s7.4,16,16,16
		s231.3,0,240,0s16-6,16-16c0-10-0.1-114.3-0.1-114.3l-49,64.1c0,0-35.9,11.8-52.1,17.1c-18.8,6-32.5-8.5-30-26.6
		C142.8,291.5,146.9,259,146.9,259z M56,112h144c4.4,0,8,3.6,8,8s-3.6,8-8,8H56c-4.4,0-8-3.6-8-8S51.6,112,56,112z M56,160h128
		c4.4,0,8,3.6,8,8s-3.6,8-8,8H56c-4.4,0-8-3.6-8-8S51.6,160,56,160z M125.7,274.6L125.7,274.6C125.7,274.7,125.7,274.7,125.7,274.6
		L80,320l-29.1-28.9c-1.8-1.5-2.9-3.7-2.9-6.1c0-4.4,3.6-8,8-8c1.9,0,3.7,0.7,5.1,1.8l0,0l0,0c0.4,0.4,0.8,0.8,1.2,1.2L80,298
		l33.9-34.2c0.3-0.3,0.6-0.6,0.9-0.9l0,0l0,0c1.4-1.2,3.2-2,5.2-2c4.4,0,8,3.6,8,8C128,271.2,127.1,273.2,125.7,274.6L125.7,274.6z
		 M56,224c-4.4,0-8-3.6-8-8s3.6-8,8-8h88c4.4,0,8,3.6,8,8s-3.6,8-8,8H56z"/>
	<path d="M346,130.7c10.1-13.2,7.8-33.3-6.5-44.2s-34.3-7.8-44.4,5.3c-2.4,3.1-132.7,173.5-132.7,173.5l-5.5,44.6
		c-0.5,2.8-0.4,6.5,2.1,8.4c2.5,1.9,5.6,2.1,8.2,0.9l46-14.9C213.1,304.4,343.6,133.8,346,130.7z M210.1,282l-25.4-19.4
		c13.7-17.8,73.4-95.9,104.3-136.2l25.4,19.4C283.5,186.1,223.7,264.2,210.1,282z M330.1,98.9c7.1,5.5,8.6,15.1,3.2,22.1
		c-0.8,1-4.2,5.5-9.5,12.4L298.4,114c5.3-6.9,8.7-11.4,9.5-12.4C313.2,94.6,322.9,93.4,330.1,98.9z M172.6,302.1l3.4-25.4l22,16.8
		L172.6,302.1z"/>
</g>
</svg>
