<?xml version="1.0" encoding="utf-8"?>
<!-- Generator: Adobe Illustrator 21.1.0, SVG Export Plug-In . SVG Version: 6.00 Build 0)  -->
<svg version="1.1" id="icon" xmlns="http://www.w3.org/2000/svg" xmlns:xlink="http://www.w3.org/1999/xlink" x="0px" y="0px"
	 viewBox="0 0 384 288" style="enable-background:new 0 0 384 288;" xml:space="preserve">
<g id="lines">
</g>
<g id="icon_x5F_04_x5F_level1_x5F_inact">
	<path d="M54,298l10,26l16-52l-52,16L54,298l-3,11l-10,2L8,299c-10.3-3.6-11.4-20.1,1-24l73-23c14.6-4.5,21.6,3.3,17,17l-22,72
		c-4.3,15.3-21.2,13.3-25,2l-11-32L54,298z"/>
	<path d="M105,233l11,13c23-18,45-13,57-40l-13-9C150,222,128,212,105,233z"/>
	<path d="M213,204l13-10c20,28,73,13,83,62l-16,6C284,217,244,245,213,204z"/>
	<path d="M226,124l10,13c45-21,28-65,71-69l-4-17C249,55,269,104,226,124z"/>
	<path d="M144,149l6-16c-41-11-17-41-47-74L92,71C115,101,96,135,144,149z"/>
	<path d="M192,128c-17.7,0-32,14.3-32,32c0,17.7,14.3,32,32,32s32-14.3,32-32C224,142.3,209.7,128,192,128z M192,176
		c-8.8,0-16-7.2-16-16s7.2-16,16-16s16,7.2,16,16S200.8,176,192,176z"/>
	<path d="M64,0C46.3,0,32,14.3,32,32c0,17.7,14.3,32,32,32s32-14.3,32-32C96,14.3,81.7,0,64,0z M64,48c-8.8,0-16-7.2-16-16
		s7.2-16,16-16s16,7.2,16,16S72.8,48,64,48z"/>
	<path d="M352,16c-17.7,0-32,14.3-32,32c0,17.7,14.3,32,32,32s32-14.3,32-32C384,30.3,369.7,16,352,16z M352,64c-8.8,0-16-7.2-16-16
		s7.2-16,16-16s16,7.2,16,16S360.8,64,352,64z"/>
	<path d="M320,272c-17.7,0-32,14.3-32,32c0,17.7,14.3,32,32,32s32-14.3,32-32C352,286.3,337.7,272,320,272z M320,320
		c-8.8,0-16-7.2-16-16s7.2-16,16-16s16,7.2,16,16S328.8,320,320,320z"/>
</g>
</svg>
