<?xml version="1.0" encoding="utf-8"?>
<!-- Generator: Adobe Illustrator 21.1.0, SVG Export Plug-In . SVG Version: 6.00 Build 0)  -->
<svg version="1.1" id="icon" xmlns="http://www.w3.org/2000/svg" xmlns:xlink="http://www.w3.org/1999/xlink" x="0px" y="0px"
	 viewBox="0 0 384 320" style="enable-background:new 0 0 384 320;" xml:space="preserve">
<g id="lines">
</g>
<g id="icon_x5F_03_x5F_level1_x5F_act">
	<path d="M368.6,88.3l-0.7-0.3l0.7-0.3c0.2-3.6-0.3-9.1-1.4-13c0,0,12.1-7.1,14.7-8.6c-1.3-6.4-7.6-18.6-9.6-22.1s-9.4-15-14.3-19.4
		c-2.6,1.5-14.8,8.4-14.8,8.4c-2.9-3-7.4-6.1-10.6-7.7l-0.6,0.5L332,25c-3-2-8-4.3-12-5.3c0,0-0.1-14-0.1-17C313.7,0.6,300,0,296,0
		s-17.7,0.6-23.9,2.7c0,3-0.1,17-0.1,17c-4,1-9,3.3-12,5.3l0.1,0.8l-0.6-0.5c-3.2,1.6-7.7,4.8-10.6,7.7c0,0-12.2-6.9-14.8-8.4
		c-4.9,4.3-12.3,15.9-14.3,19.4s-8.3,15.6-9.6,22.1c2.6,1.5,14.7,8.6,14.7,8.6c-1.1,4-1.6,9.4-1.4,13l0.7,0.3l-0.7,0.3
		c-0.2,3.6,0.3,9.1,1.4,13c0,0-12.1,7.1-14.7,8.6c1.3,6.4,7.6,18.6,9.6,22.1s9.4,15,14.3,19.4c2.6-1.5,14.8-8.4,14.8-8.4
		c2.9,3,7.4,6.1,10.6,7.7l0.6-0.5L260,151c3,2,8,4.3,12,5.3c0,0,0.1,14,0.1,17c6.2,2.1,19.9,2.7,23.9,2.7s17.7-0.6,23.9-2.7
		c0-3,0.1-17,0.1-17c4-1,9-3.3,12-5.3l-0.1-0.8l0.6,0.5c3.2-1.6,7.7-4.8,10.6-7.7c0,0,12.2,6.9,14.8,8.4
		c4.9-4.3,12.3-15.9,14.3-19.4s8.3-15.6,9.6-22.1c-2.6-1.5-14.7-8.6-14.7-8.6C368.3,97.4,368.8,91.9,368.6,88.3z M296,128
		c-22.1,0-40-17.9-40-40c0-22.1,17.9-40,40-40s40,17.9,40,40C336,110.1,318.1,128,296,128z"/>
	<path d="M192,104c0-4.4-3.6-8-8-8c0,0-122.7,0-124,0c-6,0-12,4-15,8L0,172c0,0,0,59,0,68c0,8.7,7.5,15.5,15.2,16c0.3,0,0.6,0,0.8,0
		h24c4.4,0,8-3.6,8-8c0-0.6,0-4,0-8c0-19.3,10.1-36.4,22.9-48H40c-4.4,0-8-3.6-8-8c0-1.9,0.7-3.7,1.9-5.1c1.5-1.7,30.8-46.6,32-48
		c1.5-1.7,3.7-2.8,6.1-2.8c4.4,0,8,3.6,8,8v48c0,0.3,0,0.6-0.1,0.9c8.6-5.7,17.6-8.9,25.1-8.9l51-48c0,0,36,0,44,0
		C195,121,192,112,192,104z"/>
	<path d="M376,176h-24l-16,16l-6.8,0.1c-0.4-0.1-0.8-0.1-1.2-0.1H208v-8c0-4.4-3.6-8-8-8s-8,3.6-8,8v8h-7.8H169
		c-9.8,0-23.1,0-35.5,0l34.5-32h16h4.5H200c4.4,0,8-3.6,8-8c0-4.4-3.6-8-8-8h-12.5H184h-22l-51.8,48.1C85.9,193.1,64,215.6,64,240
		c0,7,0,23,0,32s7,16,16,16c4.5,0,10.9,0,16,0c0,17.7,14.3,32,32,32s32-14.3,32-32h128c0,17.7,14.3,32,32,32s32-14.3,32-32
		c5,0,11.3,0,16,0c9,0,16-7,16-16c0-5.7,0-25.3,0-39v-14v-35C384,179.6,380.4,176,376,176z M128,304c-8.8,0-16-7.2-16-16
		s7.2-16,16-16s16,7.2,16,16S136.8,304,128,304z M168,240h-16c-4.4,0-8-3.6-8-8c0-4.4,3.6-8,8-8h16c4.4,0,8,3.6,8,8
		C176,236.4,172.4,240,168,240z M320,304c-8.8,0-16-7.2-16-16s7.2-16,16-16s16,7.2,16,16S328.8,304,320,304z"/>
</g>
</svg>
