<?xml version="1.0" encoding="utf-8"?>
<!-- Generator: Adobe Illustrator 21.1.0, SVG Export Plug-In . SVG Version: 6.00 Build 0)  -->
<svg version="1.1" id="icon" xmlns="http://www.w3.org/2000/svg" xmlns:xlink="http://www.w3.org/1999/xlink" x="0px" y="0px"
	 viewBox="0 0 320 224" style="enable-background:new 0 0 320 224;" xml:space="preserve">
<style type="text/css">
	.st0{display:none;}
</style>
<g id="lines" class="st0">
</g>
<g id="icon_x5F_look_x5F_pass">
	<path d="M160,0C92,0,32,37,0,96v40c0,4.4,3.6,8,8,8s8-3.6,8-8v-15.3c5,6.5,10.3,12.6,16,18.3v29c0,4.4,3.6,8,8,8s8-3.6,8-8v-14.7
		c9.9,7.9,20.6,14.6,32,20.2V200c0,4.4,3.6,8,8,8s8-3.6,8-8v-19.6c10.3,3.9,21,6.8,32,8.8V216c0,4.4,3.6,8,8,8s8-3.6,8-8v-24.7
		c5.3,0.5,10.6,0.7,16,0.7s10.7-0.3,16-0.7V216c0,4.4,3.6,8,8,8s8-3.6,8-8v-26.8c11-1.9,21.7-4.9,32-8.8V200c0,4.4,3.6,8,8,8
		s8-3.6,8-8v-26.5c11.4-5.6,22.1-12.4,32-20.2V168c0,4.4,3.6,8,8,8s8-3.6,8-8v-29c5.7-5.7,11-11.8,16-18.3V136c0,4.4,3.6,8,8,8
		s8-3.6,8-8V96C288,37,228,0,160,0z M160,176c-61,0-109-35-142-80c33-45,81-80,142-80s109,35,142,80C269,141,221,176,160,176z"/>
</g>
</svg>
