<?xml version="1.0" encoding="utf-8"?>
<!-- Generator: Adobe Illustrator 21.1.0, SVG Export Plug-In . SVG Version: 6.00 Build 0)  -->
<svg version="1.1" id="icon" xmlns="http://www.w3.org/2000/svg" xmlns:xlink="http://www.w3.org/1999/xlink" x="0px" y="0px"
	 viewBox="0 0 384 384" style="enable-background:new 0 0 384 384;" xml:space="preserve">
<g id="lines">
</g>
<g id="icon_x5F_profile_x5F_act">
	<path d="M192,0C86,0,0,86,0,192s86,192,192,192s192-86,192-192S298,0,192,0z M192,64c35.3,0,64,28.7,64,64c0,35.3-28.7,64-64,64
		s-64-28.7-64-64C128,92.7,156.7,64,192,64z M192,320c-48,0-70-16-96-42c0-39,12-64,45-89c14,12,31,19,51,19s37-7,51-19
		c33,25,45,50,45,89C262,304,240,320,192,320z"/>
</g>
</svg>
