<?xml version="1.0" encoding="utf-8"?>
<!-- Generator: Adobe Illustrator 21.1.0, SVG Export Plug-In . SVG Version: 6.00 Build 0)  -->
<svg version="1.1" id="icon" xmlns="http://www.w3.org/2000/svg" xmlns:xlink="http://www.w3.org/1999/xlink" x="0px" y="0px"
	 viewBox="0 0 320 192" style="enable-background:new 0 0 320 192;" xml:space="preserve">
<g id="lines">
</g>
<g id="icon_x5F_look02">
	<path d="M160,0C92,0,32,37,0,96c32,59,92,96,160,96s128-37,160-96C288,37,228,0,160,0z M160,176c-61,0-109-35-142-80
		c33-45,81-80,142-80s109,35,142,80C269,141,221,176,160,176z"/>
	<path d="M160,32c-35.3,0-64,28.7-64,64c0,35.3,28.7,64,64,64s64-28.7,64-64C224,60.7,195.3,32,160,32z M160,144
		c-26.5,0-48-21.5-48-48c0-26.5,21.5-48,48-48s48,21.5,48,48C208,122.5,186.5,144,160,144z"/>
	<circle cx="160" cy="96" r="16"/>
</g>
</svg>
