<?xml version="1.0" encoding="utf-8"?>
<!-- Generator: Adobe Illustrator 21.1.0, SVG Export Plug-In . SVG Version: 6.00 Build 0)  -->
<svg version="1.1" id="icon" xmlns="http://www.w3.org/2000/svg" xmlns:xlink="http://www.w3.org/1999/xlink" x="0px" y="0px"
	 viewBox="0 0 384 224" style="enable-background:new 0 0 384 224;" xml:space="preserve">
<g id="lines">
</g>
<g id="icon_x5F_01_x5F_level1_x5F_inact">
	<path d="M264,32c-4.4,0-8,3.6-8,8v40h-64V40c0-4.4-3.6-8-8-8s-8,3.6-8,8v40h-64V40c0-4.4-3.6-8-8-8s-8,3.6-8,8v40H48V40
		c0-4.4-3.6-8-8-8s-8,3.6-8,8v48c0,4.4,3.6,8,8,8h224c4.4,0,8-3.6,8-8V40C272,35.6,268.4,32,264,32z"/>
	<path d="M240,160h-96c-4.4,0-8-3.6-8-8v0c0-4.4,3.6-8,8-8h96c4.4,0,8,3.6,8,8v0C248,156.4,244.4,160,240,160z"/>
	<path d="M16,160h16c4.4,0,8-3.6,8-8v0c0-4.4-3.6-8-8-8H16V160z"/>
	<path d="M368,160h-16c-4.4,0-8-3.6-8-8v0c0-4.4,3.6-8,8-8h16V160z"/>
	<path d="M312,128h-16c-4.4,0-8-3.6-8-8v0c0-4.4,3.6-8,8-8h16c4.4,0,8,3.6,8,8v0C320,124.4,316.4,128,312,128z"/>
	<path d="M338,80h-34V40c0-2.1-0.8-4-2.1-5.4c-1.5-1.6-3.6-2.6-5.9-2.6c-4.4,0-8,3.6-8,8v48c0,4.4,3.6,8,8,8h42c4.4,0,8-3.6,8-8
		c0-1.6-0.5-3-1.3-4.3C343.3,81.5,340.8,80,338,80z"/>
	<circle cx="296" cy="184" r="8"/>
	<circle cx="88" cy="184" r="8"/>
	<path d="M88,144c-22.1,0-40,17.9-40,40c0,22.1,17.9,40,40,40s40-17.9,40-40C128,161.9,110.1,144,88,144z M88,208
		c-13.3,0-24-10.7-24-24s10.7-24,24-24s24,10.7,24,24S101.3,208,88,208z"/>
	<path d="M296,144c-22.1,0-40,17.9-40,40c0,22.1,17.9,40,40,40s40-17.9,40-40C336,161.9,318.1,144,296,144z M296,208
		c-13.3,0-24-10.7-24-24s10.7-24,24-24s24,10.7,24,24S309.3,208,296,208z"/>
	<path d="M0,32C0,14,15,0,32,0s16,0,16,0s245,0,256,0c15,0,17,3,23,10l48,55c6,7,9,12,9,23s0,54,0,72s-15,32-32,32s-23,0-23,0v-16
		c0,0,14,0,23,0s16-7,16-16s0-79,0-79l-57-65c0,0-271,0-279,0s-16,8-16,16s0,119,0,128s7,16,16,16s24,0,24,0v16c0,0-7,0-24,0
		S0,178,0,160S0,50,0,32z"/>
	<rect x="121" y="176" width="142" height="16"/>
</g>
</svg>
