<?xml version="1.0" encoding="utf-8"?>
<!-- Generator: Adobe Illustrator 21.1.0, SVG Export Plug-In . SVG Version: 6.00 Build 0)  -->
<svg version="1.1" id="icon" xmlns="http://www.w3.org/2000/svg" xmlns:xlink="http://www.w3.org/1999/xlink" x="0px" y="0px"
	 viewBox="0 0 384 384" style="enable-background:new 0 0 384 384;" xml:space="preserve">
<g id="lines">
</g>
<g id="icon_x5F_02_x5F_level1_x5F_inact">
	<path d="M95.8,41.6L95.8,41.6c0.1-0.5,0.2-1,0.2-1.6c0-4.4-3.6-8-8-8c-3.6,0-6.6,2.3-7.6,5.5l0,0l0,0c-0.1,0.4-0.2,0.7-0.3,1.1
		L0.3,373.9l0,0C0.1,374.6,0,375.3,0,376c0,4.4,3.6,8,8,8c3.7,0,6.8-2.5,7.7-6l0,0L95.8,41.8C95.8,41.7,95.8,41.6,95.8,41.6
		L95.8,41.6z"/>
	<path d="M335.7,373.9l-43.3-182c-5.8-0.2-11.4-0.9-16.9-2L320.3,378l0,0c0.9,3.4,4,6,7.7,6c4.4,0,8-3.6,8-8
		C336,375.3,335.9,374.6,335.7,373.9L335.7,373.9z"/>
	<path d="M168,88L168,88c-4.4,0-8-3.6-8-8V40c0-4.4,3.6-8,8-8h0c4.4,0,8,3.6,8,8v40C176,84.4,172.4,88,168,88z"/>
	<path d="M168,176L168,176c-4.4,0-8-3.6-8-8v-48c0-4.4,3.6-8,8-8h0c4.4,0,8,3.6,8,8v48C176,172.4,172.4,176,168,176z"/>
	<path d="M168,272L168,272c-4.4,0-8-3.6-8-8v-56c0-4.4,3.6-8,8-8h0c4.4,0,8,3.6,8,8v56C176,268.4,172.4,272,168,272z"/>
	<path d="M168,384L168,384c-4.4,0-8-3.6-8-8v-64c0-4.4,3.6-8,8-8h0c4.4,0,8,3.6,8,8v64C176,380.4,172.4,384,168,384z"/>
	<path d="M368.6,88.3l-0.7-0.3l0.7-0.3c0.2-3.6-0.3-9.1-1.4-13c0,0,12.1-7.1,14.7-8.6c-1.3-6.4-7.6-18.6-9.6-22.1s-9.4-15-14.3-19.4
		c-2.6,1.5-14.8,8.4-14.8,8.4c-2.9-3-7.4-6.1-10.6-7.7l-0.6,0.5L332,25c-3-2-8-4.3-12-5.3c0,0-0.1-14-0.1-17C313.7,0.6,300,0,296,0
		s-17.7,0.6-23.9,2.7c0,3-0.1,17-0.1,17c-4,1-9,3.3-12,5.3l0.1,0.8l-0.6-0.5c-3.2,1.6-7.7,4.8-10.6,7.7c0,0-12.2-6.9-14.8-8.4
		c-4.9,4.3-12.3,15.9-14.3,19.4s-8.3,15.6-9.6,22.1c2.6,1.5,14.7,8.6,14.7,8.6c-1.1,4-1.6,9.4-1.4,13l0.7,0.3l-0.7,0.3
		c-0.2,3.6,0.3,9.1,1.4,13c0,0-12.1,7.1-14.7,8.6c1.3,6.4,7.6,18.6,9.6,22.1s9.4,15,14.3,19.4c2.6-1.5,14.8-8.4,14.8-8.4
		c2.9,3,7.4,6.1,10.6,7.7l0.6-0.5L260,151c3,2,8,4.3,12,5.3c0,0,0.1,14,0.1,17c6.2,2.1,19.9,2.7,23.9,2.7s17.7-0.6,23.9-2.7
		c0-3,0.1-17,0.1-17c4-1,9-3.3,12-5.3l-0.1-0.8l0.6,0.5c3.2-1.6,7.7-4.8,10.6-7.7c0,0,12.2,6.9,14.8,8.4
		c4.9-4.3,12.3-15.9,14.3-19.4s8.3-15.6,9.6-22.1c-2.6-1.5-14.7-8.6-14.7-8.6C368.3,97.4,368.8,91.9,368.6,88.3z M358.4,124
		l-4.4,6.7l-13.5-7.8c-4.4,5.6-9.6,10.6-16.1,13.8l0,0.5L324,137c-6,4-13,6-20,7v15.6l-8,0.4l-8-0.4V144c-7-1-14-3-20-7l-0.4,0.2
		l0-0.5c-6.5-3.2-11.7-8.3-16.1-13.8l-13.5,7.8l-4.4-6.7l-3.6-7.1l13.5-7.8c-2.6-6.6-4.4-13.6-3.9-20.8l-0.4-0.3l0.4-0.3
		c-0.5-7.2,1.3-14.3,3.9-20.8L230,59.1l3.6-7.1l4.4-6.7l13.5,7.8c4.4-5.6,9.6-10.6,16.1-13.8l0-0.5L268,39c6-4,13-6,20-7V16.4l8-0.4
		l8,0.4V32c7,1,14,3,20,7l0.4-0.2l0,0.5c6.5,3.2,11.7,8.3,16.1,13.8l13.5-7.8l4.4,6.7l3.6,7.1l-13.5,7.8c2.6,6.6,4.4,13.6,3.9,20.8
		l0.4,0.3l-0.4,0.3c0.5,7.2-1.3,14.3-3.9,20.8l13.5,7.8L358.4,124z"/>
	<path d="M296,48c-22.1,0-40,17.9-40,40c0,22.1,17.9,40,40,40s40-17.9,40-40C336,65.9,318.1,48,296,48z M296,112
		c-13.3,0-24-10.7-24-24s10.7-24,24-24s24,10.7,24,24S309.3,112,296,112z"/>
</g>
</svg>
