<?xml version="1.0" encoding="utf-8"?>
<!-- Generator: Adobe Illustrator 21.1.0, SVG Export Plug-In . SVG Version: 6.00 Build 0)  -->
<svg version="1.1" id="icon" xmlns="http://www.w3.org/2000/svg" xmlns:xlink="http://www.w3.org/1999/xlink" x="0px" y="0px"
	 viewBox="0 0 240 256" style="enable-background:new 0 0 240 256;" xml:space="preserve">
<g id="lines">
</g>
<g id="icon_x5F_filter">
	<path d="M128,0h-16H0v16l96,112v120l0,0c0,2,0.8,4.1,2.3,5.6h0c3.1,3.1,8.2,3.1,11.3,0L144,219v-91l96-112V0H128z M128,120v92
		l-16,16.4V120L22,16h90h16h90L128,120z"/>
	<path d="M130.1,82.2L130.1,82.2c-3.3-2.9-3.7-8-0.8-11.3l31.4-36.3c2.9-3.3,8-3.7,11.3-0.8l0,0c3.3,2.9,3.7,8,0.8,11.3l-31.4,36.3
		C138.5,84.7,133.4,85.1,130.1,82.2z"/>
</g>
</svg>
