<?xml version="1.0" encoding="utf-8"?>
<!-- Generator: Adobe Illustrator 21.1.0, SVG Export Plug-In . SVG Version: 6.00 Build 0)  -->
<svg version="1.1" id="icon" xmlns="http://www.w3.org/2000/svg" xmlns:xlink="http://www.w3.org/1999/xlink" x="0px" y="0px"
	 viewBox="0 0 384 320" style="enable-background:new 0 0 384 320;" xml:space="preserve">
<g id="lines">
</g>
<g id="icon_x5F_02_x5F_level1_x5F_act">
	<path d="M335.7,373.9l-43.3-182C236.6,190,192,144.2,192,88c0-20.6,6-39.8,16.3-56c-5.3,0-10.9,0-16.3,0c0,0-6.4,0-16,0v8v8v32
		c0,4.4-3.6,8-8,8s-8-3.6-8-8V48v-8v-8c-5.1,0-10.5,0-16,0c-26.2,0-53.7,0-56,0c-3.6,0-6.6,2.3-7.6,5.5l0,0l0,0
		c-0.1,0.4-0.2,0.7-0.3,1.1L0.3,373.9l0,0C0.1,374.6,0,375.3,0,376c0,4.4,3.6,8,8,8c2.5,0,82.3,0,136,0c5.7,0,11,0,16,0v-8v-8v-56
		c0-4.4,3.6-8,8-8s8,3.6,8,8v56v8v8c9.9,0,16,0,16,0c53.7,0,133.5,0,136,0c4.4,0,8-3.6,8-8C336,375.3,335.9,374.6,335.7,373.9
		L335.7,373.9z M176,264c0,4.4-3.6,8-8,8s-8-3.6-8-8v-56c0-4.4,3.6-8,8-8s8,3.6,8,8V264z M176,168c0,4.4-3.6,8-8,8s-8-3.6-8-8v-48
		c0-4.4,3.6-8,8-8s8,3.6,8,8V168z"/>
	<path d="M368.6,88.3l-0.7-0.3l0.7-0.3c0.2-3.6-0.3-9.1-1.4-13c0,0,12.1-7.1,14.7-8.6c-1.3-6.4-7.6-18.6-9.6-22.1s-9.4-15-14.3-19.4
		c-2.6,1.5-14.8,8.4-14.8,8.4c-2.9-3-7.4-6.1-10.6-7.7l-0.6,0.5L332,25c-3-2-8-4.3-12-5.3c0,0-0.1-14-0.1-17C313.7,0.6,300,0,296,0
		s-17.7,0.6-23.9,2.7c0,3-0.1,17-0.1,17c-4,1-9,3.3-12,5.3l0.1,0.8l-0.6-0.5c-3.2,1.6-7.7,4.8-10.6,7.7c0,0-12.2-6.9-14.8-8.4
		c-4.9,4.3-12.3,15.9-14.3,19.4s-8.3,15.6-9.6,22.1c2.6,1.5,14.7,8.6,14.7,8.6c-1.1,4-1.6,9.4-1.4,13l0.7,0.3l-0.7,0.3
		c-0.2,3.6,0.3,9.1,1.4,13c0,0-12.1,7.1-14.7,8.6c1.3,6.4,7.6,18.6,9.6,22.1s9.4,15,14.3,19.4c2.6-1.5,14.8-8.4,14.8-8.4
		c2.9,3,7.4,6.1,10.6,7.7l0.6-0.5L260,151c3,2,8,4.3,12,5.3c0,0,0.1,14,0.1,17c6.2,2.1,19.9,2.7,23.9,2.7s17.7-0.6,23.9-2.7
		c0-3,0.1-17,0.1-17c4-1,9-3.3,12-5.3l-0.1-0.8l0.6,0.5c3.2-1.6,7.7-4.8,10.6-7.7c0,0,12.2,6.9,14.8,8.4
		c4.9-4.3,12.3-15.9,14.3-19.4s8.3-15.6,9.6-22.1c-2.6-1.5-14.7-8.6-14.7-8.6C368.3,97.4,368.8,91.9,368.6,88.3z M296,128
		c-22.1,0-40-17.9-40-40c0-22.1,17.9-40,40-40s40,17.9,40,40C336,110.1,318.1,128,296,128z"/>
</g>
</svg>
