<?xml version="1.0" encoding="utf-8"?>
<!-- Generator: Adobe Illustrator 21.1.0, SVG Export Plug-In . SVG Version: 6.00 Build 0)  -->
<svg version="1.1" id="icon" xmlns="http://www.w3.org/2000/svg" xmlns:xlink="http://www.w3.org/1999/xlink" x="0px" y="0px"
	 viewBox="0 0 320 384" style="enable-background:new 0 0 320 384;" xml:space="preserve">
<g id="lines">
</g>
<g id="icon_x5F_DD_x5F_inact">
	<path d="M272,208c0-5,0-60,0-64c0-51.7-33.7-94-80-107.5c0-1.8,0-3.7,0-4.5c0-18-14-32-32-32s-32,14-32,32c0,0.9,0,2.7,0,4.5
		C81.7,50,48,92.3,48,144c0,4,0,59,0,64c0,31-48,62-48,96c0,6,0,19,0,21c0,4,7,10,16,13c27,9,64,14,112,14c0,18,14,32,32,32
		s32-14,32-32c48,0,85-5,112-14c9-3,16-9,16-13c0-2,0-15,0-21C320,270,272,239,272,208z M144,32c0-9,7-16,16-16s16,7,16,16
		c0,0.3,0,0.7,0,1.1c-5.2-0.7-10.6-1.1-16-1.1s-10.8,0.4-16,1.1C144,32.7,144,32.3,144,32z M160,368c-9,0-16-8-16-16h16h16
		C176,360,169,368,160,368z M304,320c-21,9-75,17-112,16c-5,0-32,0-32,0s-27,0-32,0c-37,1-91-7-112-16c0-3,0-7,0-13
		c0-27,48-62,48-99c0-11,0-56,0-64c0-51,44-96,96-96s96,45,96,96c0,8,0,53,0,64c0,37,48,72,48,99C304,313,304,317,304,320z"/>
	<path d="M96,144c0-33,31-64,64-64c10,0,10-16,0-16c-41,0-80,39-80,80C80,155,96,155,96,144z"/>
	<path d="M168,304c-42,0-78,0-109.5-6.6c0,0,0,0,0,0c-0.8-0.3-1.6-0.4-2.5-0.4c-4.4,0-8,3.6-8,8c0,3.8,2.6,6.9,6.2,7.8
		c0,0.1,0,0.2,0,0.2c27.8,6,66.8,7,113.8,7c4.4,0,8-3.6,8-8S172.4,304,168,304z"/>
</g>
</svg>
