<?xml version="1.0" encoding="utf-8"?>
<!-- Generator: Adobe Illustrator 21.1.0, SVG Export Plug-In . SVG Version: 6.00 Build 0)  -->
<svg version="1.1" id="icon" xmlns="http://www.w3.org/2000/svg" xmlns:xlink="http://www.w3.org/1999/xlink" x="0px" y="0px"
	 viewBox="0 0 384 384" style="enable-background:new 0 0 384 384;" xml:space="preserve">
<g id="lines">
</g>
<g id="icon_x5F_profile_x5F_inact">
	<path d="M192,0C86,0,0,86,0,192s86,192,192,192s192-86,192-192S298,0,192,0z M192,368c-97.2,0-176-78.8-176-176S94.8,16,192,16
		s176,78.8,176,176S289.2,368,192,368z"/>
	<path d="M192,64c-35.3,0-64,28.7-64,64c0,35.3,28.7,64,64,64s64-28.7,64-64C256,92.7,227.3,64,192,64z M192,176
		c-26.5,0-48-21.5-48-48c0-26.5,21.5-48,48-48s48,21.5,48,48C240,154.5,218.5,176,192,176z"/>
	<path d="M243,189c-14,12-31,19-51,19s-37-7-51-19c-33,25-45,50-45,89c26,26,48,42,96,42s70-16,96-42C288,239,276,214,243,189z
		 M142,210c7,6,31,14,50,14s43-8,50-14c17,14,30,38,30,60c-20,20-43,34-80,34s-60-14-80-34C112,248,125,224,142,210z"/>
</g>
</svg>
