<?xml version="1.0" encoding="utf-8"?>
<!-- Generator: Adobe Illustrator 21.1.0, SVG Export Plug-In . SVG Version: 6.00 Build 0)  -->
<svg version="1.1" id="icon" xmlns="http://www.w3.org/2000/svg" xmlns:xlink="http://www.w3.org/1999/xlink" x="0px" y="0px"
	 viewBox="0 0 384 384" style="enable-background:new 0 0 384 384;" xml:space="preserve">
<g id="lines">
</g>
<g id="icon_x5F_06_x5F_level1_x5F_act">
	<path d="M240,0c-10,0-88,0-96,0s-16,8-16,16s0,39,0,48s7,16,16,16c4,0,21.2,0,40,0v16h-16c-4.4,0-8,3.6-8,8c0,4.4,3.6,8,8,8h48
		c4.4,0,8-3.6,8-8c0-4.4-3.6-8-8-8h-16V80c18.6,0,35.6,0,40,0c10,0,16-6,16-16s0-40,0-48S250,0,240,0z"/>
	<path d="M368,272c-10,0-88,0-96,0s-16,8-16,16s0,39,0,48s7,16,16,16c4,0,21.2,0,40,0v16h-16c-4.4,0-8,3.6-8,8c0,4.4,3.6,8,8,8h48
		c4.4,0,8-3.6,8-8c0-4.4-3.6-8-8-8h-16v-16c18.6,0,35.6,0,40,0c10,0,16-6,16-16s0-40,0-48S378,272,368,272z"/>
	<path d="M112,272c-10,0-88,0-96,0s-16,8-16,16s0,39,0,48s7,16,16,16c4,0,21.2,0,40,0v16H40c-4.4,0-8,3.6-8,8c0,4.4,3.6,8,8,8h48
		c4.4,0,8-3.6,8-8c0-4.4-3.6-8-8-8H72v-16c18.6,0,35.6,0,40,0c10,0,16-6,16-16s0-40,0-48S122,272,112,272z"/>
	<rect x="160" y="176" width="64" height="48"/>
	<path d="M192,160L192,160c-4.4,0-8-3.6-8-8v-16c0-4.4,3.6-8,8-8h0c4.4,0,8,3.6,8,8v16C200,156.4,196.4,160,192,160z"/>
	<path d="M136,192H72c-4.4,0-8,3.6-8,8v48c0,4.4,3.6,8,8,8s8-3.6,8-8v-40h56c4.4,0,8-3.6,8-8C144,195.6,140.4,192,136,192z"/>
	<path d="M312,192h-64c-4.4,0-8,3.6-8,8c0,4.4,3.6,8,8,8h56v40c0,4.4,3.6,8,8,8s8-3.6,8-8v-48C320,195.6,316.4,192,312,192z"/>
</g>
</svg>
