<?xml version="1.0" encoding="utf-8"?>
<!-- Generator: Adobe Illustrator 21.1.0, SVG Export Plug-In . SVG Version: 6.00 Build 0)  -->
<svg version="1.1" id="icon" xmlns="http://www.w3.org/2000/svg" xmlns:xlink="http://www.w3.org/1999/xlink" x="0px" y="0px"
	 viewBox="0 0 384 224" style="enable-background:new 0 0 384 224;" xml:space="preserve">
<g id="lines">
</g>
<g id="icon_x5F_01_x5F_level1_x5F_act">
	<circle cx="296" cy="184" r="8"/>
	<circle cx="88" cy="184" r="8"/>
	<path d="M88,144c-22.1,0-40,17.9-40,40c0,22.1,17.9,40,40,40s40-17.9,40-40C128,161.9,110.1,144,88,144z M88,208
		c-13.3,0-24-10.7-24-24s10.7-24,24-24s24,10.7,24,24S101.3,208,88,208z"/>
	<path d="M296,144c-22.1,0-40,17.9-40,40c0,22.1,17.9,40,40,40s40-17.9,40-40C336,161.9,318.1,144,296,144z M296,208
		c-13.3,0-24-10.7-24-24s10.7-24,24-24s24,10.7,24,24S309.3,208,296,208z"/>
	<path d="M378,70l-51-59c-5-6-14-11-23-11S50,0,32,0S0,15,0,32s0,112,0,128c0,18,14,32,32,32c7,0,25,0,25,0v-16l7-16l16-9l16,1l16,8
		l8,16l-1,16h147v-16l6-16l16-8h17l15,8l9,16v16c0,0,18,0,23,0c18,0,32-13,32-32s0-66,0-72S383,76,378,70z M32,160H16v-16h16
		c4.4,0,8,3.6,8,8C40,156.4,36.4,160,32,160z M96,89c0,3-4,7-8,7s-44,0-48,0s-8-4-8-8s0-44,0-48s4-8,8-8s43,0,48,0s8,4,8,8
		S96,86,96,89z M112,88c0-4,0-44,0-48s4-8,8-8s43,0,48,0s8,4,8,8s0,46,0,49s-4,7-8,7s-44,0-48,0S112,92,112,88z M240,160h-96
		c-4.4,0-8-3.6-8-8c0-4.4,3.6-8,8-8h96c4.4,0,8,3.6,8,8C248,156.4,244.4,160,240,160z M256,89c0,3-4,7-8,7s-44,0-48,0s-8-4-8-8
		s0-44,0-48s4-8,8-8s43,0,48,0s8,4,8,8S256,86,256,89z M312,128h-16c-4.4,0-8-3.6-8-8c0-4.4,3.6-8,8-8h16c4.4,0,8,3.6,8,8
		C320,124.4,316.4,128,312,128z M338,96h-42c-4.4,0-8-3.6-8-8V40c0-4.4,3.6-8,8-8c2.3,0,4.4,1,5.9,2.6C302,35,344,83,344.7,83.7
		c0.8,1.2,1.3,2.7,1.3,4.3C346,92.4,342.4,96,338,96z M368,160h-16c-4.4,0-8-3.6-8-8c0-4.4,3.6-8,8-8h16V160z"/>
</g>
</svg>
