<?xml version="1.0" encoding="utf-8"?>
<!-- Generator: Adobe Illustrator 21.1.0, SVG Export Plug-In . SVG Version: 6.00 Build 0)  -->
<svg version="1.1" id="icon" xmlns="http://www.w3.org/2000/svg" xmlns:xlink="http://www.w3.org/1999/xlink" x="0px" y="0px"
	 viewBox="0 0 384 288" style="enable-background:new 0 0 384 288;" xml:space="preserve">
<g id="lines">
</g>
<g id="icon_x5F_04_x5F_level1_x5F_act">
	<path d="M82,252L9,275c-12.4,3.9-11.3,20.4-1,24l33,12l11,32c3.8,11.3,20.7,13.3,25-2l22-72C103.6,255.3,96.6,247.5,82,252z"/>
	<path d="M105,233l11,13c23-18,45-13,57-40l-13-9C150,222,128,212,105,233z"/>
	<path d="M213,204l13-10c20,28,73,13,83,62l-16,6C284,217,244,245,213,204z"/>
	<path d="M226,124l10,13c45-21,28-65,71-69l-4-17C249,55,269,104,226,124z"/>
	<path d="M144,149l6-16c-41-11-17-41-47-74L92,71C115,101,96,135,144,149z"/>
	<circle cx="64" cy="32" r="32"/>
	<circle cx="192" cy="160" r="32"/>
	<circle cx="352" cy="48" r="32"/>
	<circle cx="320" cy="304" r="32"/>
</g>
</svg>
