<?xml version="1.0" encoding="utf-8"?>
<!-- Generator: Adobe Illustrator 21.1.0, SVG Export Plug-In . SVG Version: 6.00 Build 0)  -->
<svg version="1.1" id="icon" xmlns="http://www.w3.org/2000/svg" xmlns:xlink="http://www.w3.org/1999/xlink" x="0px" y="0px"
	 viewBox="0 0 192 255" style="enable-background:new 0 0 192 255;" xml:space="preserve">
<g id="lines">
</g>
<g id="icon_x5F_delete">
	<g>
		<path d="M72,112c-4.4,0-8,3.6-8,8v80c0,4.4,3.6,8,8,8s8-3.6,8-8v-80C80,115.6,76.4,112,72,112z"/>
		<path d="M112,200c0,4.4,3.6,8,8,8s8-3.6,8-8v-80c0-4.4-3.6-8-8-8s-8,3.6-8,8V200z"/>
		<path d="M176,32c-9,0-48,0-48,0s0-7,0-16s-7-16-16-16S96,0,96,0s-7,0-16,0S64,7,64,16s0,16,0,16s-39,0-48,0S0,38,0,48s0,32,0,32
			h16c0,0,0,150,0,160s7,16,16,16s64,0,64,0s55,0,64,0s16-6,16-16s0-160,0-160h16c0,0,0-22,0-32S185,32,176,32z M80,16h16h16v16H96
			H80V16z M160,240H96H32V80h48h32h48V240z M176,64h-64H80H16V48h80h80V64z"/>
	</g>
</g>
</svg>
