<?xml version="1.0" encoding="utf-8"?>
<!-- Generator: Adobe Illustrator 21.1.0, SVG Export Plug-In . SVG Version: 6.00 Build 0)  -->
<svg version="1.1" id="icon" xmlns="http://www.w3.org/2000/svg" xmlns:xlink="http://www.w3.org/1999/xlink" x="0px" y="0px"
	 viewBox="0 0 384 304" style="enable-background:new 0 0 384 304;" xml:space="preserve">
<g id="lines">
</g>
<g id="icon_x5F_arrow_x5F_level2">
	<path d="M376,144H28L160,11L149,0L3.8,145.2l0,0c-0.8,0.5-1.6,1.2-2.2,2c0,0,0,0.1-0.1,0.1c-0.2,0.2-0.3,0.5-0.5,0.7c0,0,0,0,0,0.1
		c-0.2,0.3-0.3,0.6-0.4,0.9c0,0,0,0,0,0c-0.1,0.3-0.2,0.5-0.3,0.8c0,0.1,0,0.2-0.1,0.3c-0.1,0.2-0.1,0.5-0.1,0.7c0,0.1,0,0.2,0,0.3
		c0,0.3-0.1,0.6-0.1,1s0,0.6,0.1,1c0,0.1,0,0.2,0,0.3c0,0.2,0.1,0.5,0.1,0.7c0,0.1,0,0.2,0.1,0.3c0.1,0.3,0.2,0.6,0.3,0.8
		c0,0,0,0,0,0c0.1,0.3,0.3,0.6,0.4,0.9c0,0,0,0,0,0.1c0.1,0.3,0.3,0.5,0.5,0.7c0,0,0,0.1,0.1,0.1c0.6,0.8,1.3,1.5,2.2,2l0,0L149,304
		l11-11L28,160h348c4.4,0,8-3.6,8-8S380.4,144,376,144z"/>
</g>
</svg>
