<?xml version="1.0" encoding="utf-8"?>
<!-- Generator: Adobe Illustrator 21.1.0, SVG Export Plug-In . SVG Version: 6.00 Build 0)  -->
<svg version="1.1" id="icon" xmlns="http://www.w3.org/2000/svg" xmlns:xlink="http://www.w3.org/1999/xlink" x="0px" y="0px"
	 viewBox="0 0 272 272" style="enable-background:new 0 0 272 272;" xml:space="preserve">
<g id="lines">
</g>
<g id="icon_x5F_search">
	<path d="M269.6,258.3L210.3,199c18.5-21.1,29.7-48.7,29.7-79C240,53.7,186.3,0,120,0S0,53.7,0,120s53.7,120,120,120
		c30.3,0,57.9-11.2,79-29.7l59.3,59.3c3.1,3.1,8.2,3.1,11.3,0S272.7,261.4,269.6,258.3z M16,120C16,62.6,62.6,16,120,16
		s104,46.6,104,104s-46.6,104-104,104S16,177.4,16,120z"/>
</g>
</svg>
