<?xml version="1.0" encoding="utf-8"?>
<!-- Generator: Adobe Illustrator 21.1.0, SVG Export Plug-In . SVG Version: 6.00 Build 0)  -->
<svg version="1.1" id="icon" xmlns="http://www.w3.org/2000/svg" xmlns:xlink="http://www.w3.org/1999/xlink" x="0px" y="0px"
	 viewBox="0 0 320 384" style="enable-background:new 0 0 320 384;" xml:space="preserve">
<g id="lines">
</g>
<g id="icon_x5F_DD_x5F_act">
	<path d="M272,208c0-5,0-60,0-64c0-51.7-33.7-94-80-107.5c0-1.8,0-3.7,0-4.5c0-18-14-32-32-32s-32,14-32,32c0,0.9,0,2.7,0,4.5
		C81.7,50,48,92.3,48,144c0,4,0,59,0,64c0,31-48,62-48,96c0,6,0,19,0,21c0,4,7,10,16,13c27,9,64,14,112,14c0,18,14,32,32,32
		s32-14,32-32c48,0,85-5,112-14c9-3,16-9,16-13c0-2,0-15,0-21C320,270,272,239,272,208z M160,64c10,0,10,16,0,16c-33,0-64,31-64,64
		c0,11-16,11-16,0C80,103,119,64,160,64z M160,368c-9,0-16-8-16-16h16h16C176,360,169,368,160,368z M168,320c-47,0-86-1-113.8-7
		c0-0.1,0-0.1,0-0.2c-3.5-0.8-6.2-4-6.2-7.8c0-4.4,3.6-8,8-8c0.9,0,1.7,0.1,2.5,0.4c0,0,0,0,0,0C90,304,126,304,168,304
		c4.4,0,8,3.6,8,8S172.4,320,168,320z M176,33.1c-5.2-0.7-10.6-1.1-16-1.1s-10.8,0.4-16,1.1c0-0.4,0-0.8,0-1.1c0-9,7-16,16-16
		s16,7,16,16C176,32.3,176,32.7,176,33.1z"/>
</g>
</svg>
