<?xml version="1.0" encoding="utf-8"?>
<!-- Generator: Adobe Illustrator 21.1.0, SVG Export Plug-In . SVG Version: 6.00 Build 0)  -->
<svg version="1.1" id="icon" xmlns="http://www.w3.org/2000/svg" xmlns:xlink="http://www.w3.org/1999/xlink" x="0px" y="0px"
	 viewBox="0 0 336 208" style="enable-background:new 0 0 336 208;" xml:space="preserve">
<g id="lines">
</g>
<g id="icon_x5F__x2B__x2F_-">
	<path d="M104,96.1H64v-40c0-4.4-3.6-8-8-8s-8,3.6-8,8v40H8c-4.4,0-8,3.6-8,8c0,4.4,3.6,8,8,8h40v40c0,4.4,3.6,8,8,8s8-3.6,8-8v-40
		h40c4.4,0,8-3.6,8-8C112,99.7,108.4,96.1,104,96.1z"/>
	<path d="M328,96.1h-96c-4.4,0-8,3.6-8,8c0,4.4,3.6,8,8,8h96c4.4,0,8-3.6,8-8C336,99.7,332.4,96.1,328,96.1z"/>
	<path d="M200.3,0.4c-4.2-1.3-8.7,1.1-10,5.3l-59.7,192.3c-1.3,4.2,1.2,8.4,5.4,9.7c4.2,1.3,8.6-0.7,9.9-4.9l59.7-192.3
		C206.9,6.2,204.5,1.7,200.3,0.4z"/>
</g>
</svg>
